<svg width="18" height="19" viewBox="0 0 18 19" fill="none" xmlns="http://www.w3.org/2000/svg">
<g clip-path="url(#clip0_396_1370)">
<path d="M9 18.5C6.61305 18.5 4.32387 17.5518 2.63604 15.864C0.948211 14.1761 0 11.8869 0 9.5C0 7.11305 0.948211 4.82387 2.63604 3.13604C4.32387 1.44821 6.61305 0.5 9 0.5C11.3869 0.5 13.6761 1.44821 15.364 3.13604C17.0518 4.82387 18 7.11305 18 9.5C18 11.8869 17.0518 14.1761 15.364 15.864C13.6761 17.5518 11.3869 18.5 9 18.5ZM9 16.7C10.9096 16.7 12.7409 15.9414 14.0912 14.5912C15.4414 13.2409 16.2 11.4096 16.2 9.5C16.2 7.59044 15.4414 5.75909 14.0912 4.40883C12.7409 3.05857 10.9096 2.3 9 2.3C7.09044 2.3 5.25909 3.05857 3.90883 4.40883C2.55857 5.75909 1.8 7.59044 1.8 9.5C1.8 11.4096 2.55857 13.2409 3.90883 14.5912C5.25909 15.9414 7.09044 16.7 9 16.7ZM13.5 8.6V10.4H4.5V8.6H13.5Z" fill="white"/>
</g>
<defs>
<clipPath id="clip0_396_1370">
<rect width="18" height="18" fill="white" transform="translate(0 0.5)"/>
</clipPath>
</defs>
</svg>
