<svg width="24" height="24" viewBox="0 0 24 24" fill="none" xmlns="http://www.w3.org/2000/svg">
<path d="M22.6798 1.73679C21.8 0.883671 20.7399 0.457031 19.5005 0.457031H4.50034C3.26087 0.457031 2.2008 0.883671 1.32056 1.73679C0.440485 2.59007 0.000366211 3.61762 0.000366211 4.81918V19.3597C0.000366211 20.5612 0.440485 21.5888 1.32056 22.4421C2.2008 23.2954 3.26087 23.722 4.50034 23.722H19.5003C20.7398 23.722 21.7998 23.2954 22.6797 22.4421C23.5599 21.5888 24 20.5612 24 19.3597V4.81918C24 3.61762 23.5599 2.58991 22.6798 1.73679ZM18.3597 9.40866C18.3702 9.49954 18.3755 9.63561 18.3755 9.81769C18.3755 10.6659 18.2477 11.5167 17.9927 12.3697C17.7376 13.2231 17.3469 14.041 16.8206 14.8235C16.2949 15.606 15.6673 16.2979 14.9382 16.8986C14.209 17.4992 13.3341 17.979 12.313 18.3372C11.2925 18.6959 10.1985 18.8753 9.03194 18.8753C7.21959 18.8753 5.54252 18.4004 4.00079 17.4516C4.25078 17.4818 4.51134 17.497 4.78202 17.497C6.2925 17.497 7.65188 17.0426 8.86026 16.1336C8.15203 16.1237 7.51911 15.9119 6.96187 15.4974C6.40447 15.0835 6.01657 14.5585 5.79777 13.9223C6.0685 13.9626 6.2716 13.9826 6.40699 13.9826C6.63614 13.9826 6.90184 13.9423 7.20382 13.8617C6.44344 13.7201 5.80291 13.3544 5.28207 12.7637C4.76112 12.1729 4.50072 11.4989 4.50072 10.7417V10.7114C5.05265 10.9636 5.57349 11.0949 6.06314 11.1051C5.1152 10.4891 4.64126 9.60564 4.64126 8.45453C4.64126 7.889 4.7922 7.35387 5.0943 6.84898C5.91713 7.82852 6.91733 8.61098 8.09424 9.19661C9.27127 9.7822 10.5318 10.1105 11.8755 10.1811C11.8235 9.98931 11.7974 9.74686 11.7974 9.45412C11.7974 8.57549 12.1177 7.82587 12.7584 7.2048C13.3989 6.58378 14.1724 6.27316 15.0785 6.27316C16.0371 6.27316 16.8341 6.60648 17.4695 7.27297C18.1882 7.14172 18.8865 6.8841 19.5633 6.50054C19.303 7.27785 18.8183 7.86863 18.1103 8.27256C18.7872 8.18153 19.4172 8.00996 20.0004 7.75754C19.563 8.40376 19.0159 8.95406 18.3597 9.40866Z" fill="white"/>
</svg>
